<region>
sample=$SAMPLE_DIR/ride_istanbul_agop_sigature_bow_a_01.wav
hivel=15
seq_length=4

<region>
sample=$SAMPLE_DIR/ride_istanbul_agop_sigature_bow_b_01.wav
hivel=15
seq_length=4
seq_position=2

<region>
sample=$SAMPLE_DIR/ride_istanbul_agop_sigature_bow_c_01.wav
hivel=15
seq_length=4
seq_position=3

<region>
sample=$SAMPLE_DIR/ride_istanbul_agop_sigature_bow_d_01.wav
hivel=15
seq_length=4
seq_position=4

<region>
sample=$SAMPLE_DIR/ride_istanbul_agop_sigature_bow_a_02.wav
lovel=16
hivel=31
seq_length=4

<region>
sample=$SAMPLE_DIR/ride_istanbul_agop_sigature_bow_b_02.wav
lovel=16
hivel=31
seq_length=4
seq_position=2

<region>
sample=$SAMPLE_DIR/ride_istanbul_agop_sigature_bow_c_02.wav
lovel=16
hivel=31
seq_length=4
seq_position=3

<region>
sample=$SAMPLE_DIR/ride_istanbul_agop_sigature_bow_d_02.wav
lovel=16
hivel=31
seq_length=4
seq_position=4

<region>
sample=$SAMPLE_DIR/ride_istanbul_agop_sigature_bow_a_03.wav
lovel=32
hivel=47
seq_length=4

<region>
sample=$SAMPLE_DIR/ride_istanbul_agop_sigature_bow_b_03.wav
lovel=32
hivel=47
seq_length=4
seq_position=2

<region>
sample=$SAMPLE_DIR/ride_istanbul_agop_sigature_bow_c_03.wav
lovel=32
hivel=47
seq_length=4
seq_position=3

<region>
sample=$SAMPLE_DIR/ride_istanbul_agop_sigature_bow_d_03.wav
lovel=32
hivel=47
seq_length=4
seq_position=4

<region>
sample=$SAMPLE_DIR/ride_istanbul_agop_sigature_bow_a_04.wav
lovel=48
hivel=63
seq_length=4

<region>
sample=$SAMPLE_DIR/ride_istanbul_agop_sigature_bow_b_04.wav
lovel=48
hivel=63
seq_length=4
seq_position=2

<region>
sample=$SAMPLE_DIR/ride_istanbul_agop_sigature_bow_c_04.wav
lovel=48
hivel=63
seq_length=4
seq_position=3

<region>
sample=$SAMPLE_DIR/ride_istanbul_agop_sigature_bow_d_04.wav
lovel=48
hivel=63
seq_length=4
seq_position=4

<region>
sample=$SAMPLE_DIR/ride_istanbul_agop_sigature_bow_a_05.wav
lovel=64
hivel=79
seq_length=4

<region>
sample=$SAMPLE_DIR/ride_istanbul_agop_sigature_bow_b_05.wav
lovel=64
hivel=79
seq_length=4
seq_position=2

<region>
sample=$SAMPLE_DIR/ride_istanbul_agop_sigature_bow_c_05.wav
lovel=64
hivel=79
seq_length=4
seq_position=3

<region>
sample=$SAMPLE_DIR/ride_istanbul_agop_sigature_bow_d_05.wav
lovel=64
hivel=79
seq_length=4
seq_position=4

<region>
sample=$SAMPLE_DIR/ride_istanbul_agop_sigature_bow_a_06.wav
lovel=80
hivel=95
seq_length=4

<region>
sample=$SAMPLE_DIR/ride_istanbul_agop_sigature_bow_b_06.wav
lovel=80
hivel=95
seq_length=4
seq_position=2

<region>
sample=$SAMPLE_DIR/ride_istanbul_agop_sigature_bow_c_06.wav
lovel=80
hivel=95
seq_length=4
seq_position=3

<region>
sample=$SAMPLE_DIR/ride_istanbul_agop_sigature_bow_d_06.wav
lovel=80
hivel=95
seq_length=4
seq_position=4

<region>
sample=$SAMPLE_DIR/ride_istanbul_agop_sigature_bow_a_07.wav
lovel=96
hivel=111
seq_length=4

<region>
sample=$SAMPLE_DIR/ride_istanbul_agop_sigature_bow_b_07.wav
lovel=96
hivel=111
seq_length=4
seq_position=2

<region>
sample=$SAMPLE_DIR/ride_istanbul_agop_sigature_bow_c_07.wav
lovel=96
hivel=111
seq_length=4
seq_position=3

<region>
sample=$SAMPLE_DIR/ride_istanbul_agop_sigature_bow_d_07.wav
lovel=96
hivel=111
seq_length=4
seq_position=4

<region>
sample=$SAMPLE_DIR/ride_istanbul_agop_sigature_bow_a_08.wav
lovel=112
seq_length=4

<region>
sample=$SAMPLE_DIR/ride_istanbul_agop_sigature_bow_b_08.wav
lovel=112
seq_length=4
seq_position=2

<region>
sample=$SAMPLE_DIR/ride_istanbul_agop_sigature_bow_c_08.wav
lovel=112
seq_length=4
seq_position=3

<region>
sample=$SAMPLE_DIR/ride_istanbul_agop_sigature_bow_d_08.wav
lovel=112
seq_length=4
seq_position=4
